<?xml version="1.0" encoding="UTF-8"?>
<svg width="109px" height="157px" viewBox="0 0 109 157" version="1.1" xmlns="http://www.w3.org/2000/svg" xmlns:xlink="http://www.w3.org/1999/xlink">
    <title>arrow-right-dotted</title>
    <g id="Page-1" stroke="none" stroke-width="1" fill="none" fill-rule="evenodd">
        <path d="M39.614947,2.05295093 L39.8100383,2.241294 L102.704703,65.1359591 C109.977448,72.4087035 110.065071,84.143489 102.967574,91.5237524 L102.704703,91.7918032 L39.8100383,154.686468 C36.8579351,157.638571 32.0716302,157.638571 29.1195271,154.686468 C26.2316001,151.798541 26.168819,147.155294 28.931184,144.191048 L29.1195271,143.995957 L92.0141921,81.101292 C93.4211729,79.6943113 93.4696895,77.4454101 92.1597419,75.9803658 L92.0141921,75.8264703 L29.1195271,12.9318052 C26.1674239,9.97970206 26.1674239,5.19339715 29.1195271,2.241294 C32.0074541,-0.646633005 36.6507017,-0.709414027 39.614947,2.05295093 Z M49.141049,69.0382814 C54.3477155,69.0382814 58.5677154,73.2582813 58.5677154,78.4636145 C58.5677154,83.670281 54.3477155,87.8902809 49.141049,87.8902809 C43.9357158,87.8902809 39.7157159,83.670281 39.7157159,78.4636145 C39.7157159,73.2582813 43.9357158,69.0382814 49.141049,69.0382814 Z M9.59811662,69.0382814 C14.8034498,69.0382814 19.024783,73.2582813 19.024783,78.4636145 C19.024783,83.670281 14.8034498,87.8902809 9.59811662,87.8902809 C4.39145008,87.8902809 0.171450187,83.670281 0.171450187,78.4636145 C0.171450187,73.2582813 4.39145008,69.0382814 9.59811662,69.0382814 Z" id="arrow-right-dotted" fill="#9FD9AA" fill-rule="nonzero"></path>
    </g>
</svg>