<svg height="157" viewBox="0 0 82 157" width="82" xmlns="http://www.w3.org/2000/svg"><path d="m79.7711765 2.29894936c2.952 2.95199993 2.952 7.73733314 0 10.68933304l-62.8946651 62.8946651c-.894745.8947451-1.072572 1.9312203-1.0903968 2.5302775l-.0016031.1070558c0 .5773333.1413333 1.6866666 1.0919999 2.6373333l62.8946651 62.8946649c2.952 2.952 2.952 7.738667 0 10.690667-2.9533332 2.951999-7.7373331 2.951999-10.6906664 0l-62.89466506-62.8946655c-3.55999991-3.56-5.51999987-8.2933332-5.51999987-13.3279997s1.95999996-9.7679998 5.51999987-13.3279997l62.89466506-62.89333174c1.4773333-1.47599996 3.4106666-2.21466661 5.3453332-2.21466661s3.8679999.73866665 5.3453332 2.21466661z" fill="#9fd9aa"/></svg>