<svg height="157" viewBox="0 0 109 157" width="109" xmlns="http://www.w3.org/2000/svg"><path d="m39.614947 2.05295093.1950913.18834307 62.8946647 62.8946651c7.272745 7.2727444 7.360368 19.0075299.262871 26.3877933l-.262871.2680508-62.8946647 62.8946648c-2.9521032 2.952103-7.7384081 2.952103-10.6905112 0-2.887927-2.887927-2.9507081-7.531174-.1883431-10.49542l.1883431-.195091 62.894665-62.894665c1.4069808-1.4069807 1.4554974-3.6558819.1455498-5.1209262l-.1455498-.1538955-62.894665-62.8946651c-2.9521032-2.95210314-2.9521032-7.73840805 0-10.6905112 2.887927-2.88792701 7.5311746-2.95070803 10.4954199-.18834307zm9.526102 66.98533047c5.2066665 0 9.4266664 4.2199999 9.4266664 9.4253331 0 5.2066665-4.2199999 9.4266664-9.4266664 9.4266664-5.2053332 0-9.4253331-4.2199999-9.4253331-9.4266664 0-5.2053332 4.2199999-9.4253331 9.4253331-9.4253331zm-39.54293238 0c5.20533318 0 9.42666638 4.2199999 9.42666638 9.4253331 0 5.2066665-4.2213332 9.4266664-9.42666638 9.4266664-5.20666654 0-9.42666643-4.2199999-9.42666643-9.4266664 0-5.2053332 4.21999989-9.4253331 9.42666643-9.4253331z" fill="#9fd9aa"/></svg>