<svg height="157" viewBox="0 0 82 157" width="82" xmlns="http://www.w3.org/2000/svg"><path d="m2.87984512 2.29894936c-2.95199993 2.95199993-2.95199993 7.73733314 0 10.68933304l62.89466508 62.8946651c.9506667.9506667 1.092 2.0613333 1.092 2.6373333 0 .5773333-.1413333 1.6866666-1.092 2.6373333l-62.89466508 62.8946649c-2.95199993 2.952-2.95199993 7.738667 0 10.690667 2.95333326 2.951999 7.73733318 2.951999 10.69066638 0l62.8946651-62.8946655c3.5599999-3.56 5.5199999-8.2933332 5.5199999-13.3279997s-1.96-9.7679998-5.5199999-13.3279997l-62.8946651-62.89333174c-1.4773333-1.47599996-3.4106666-2.21466661-5.34533318-2.21466661-1.93466662 0-3.8679999.73866665-5.3453332 2.21466661z" fill="#9fd9aa"/></svg>